<svg width="30" height="30" viewBox="0 0 30 30" fill="none" xmlns="http://www.w3.org/2000/svg">
<path d="M6.39196 8.25048L4.57664 6.74197C4.88665 6.61093 5.22011 6.54382 5.55676 6.54595H24.3068C24.6434 6.54382 24.9769 6.61093 25.2869 6.74197L23.4716 8.25048L15.4858 14.8726C15.1673 15.1346 14.7092 15.1389 14.3864 14.8811L6.39196 8.25048ZM26.5569 7.90957L25.1506 9.06866L16.5682 16.1937C16.1048 16.5676 15.5273 16.7721 14.9318 16.7732C14.3384 16.7732 13.7631 16.5687 13.304 16.1937L4.71305 9.06866L3.30682 7.90957C3.10867 8.27606 3.00319 8.68622 3 9.10275V21.0346C3.00426 22.4451 4.1463 23.5871 5.55682 23.5914H24.3068C25.7173 23.5871 26.8594 22.4451 26.8636 21.0346V9.10275C26.8604 8.68622 26.755 8.27606 26.5569 7.90957Z" fill="#0044F1"/>
</svg>
