<svg width="25" height="25" viewBox="0 0 25 25" fill="none" xmlns="http://www.w3.org/2000/svg">
<path d="M2.66989 6.42748C2.64148 5.73145 2.92912 5.06118 3.45291 4.60309L5.59514 2.72898C6.02482 2.35257 6.59035 2.17057 7.15853 2.2247C7.72671 2.27886 8.24785 2.56473 8.59851 3.01484L10.2693 5.15973C10.6759 5.68086 10.8446 6.34759 10.7354 6.99923C10.6262 7.65086 10.2489 8.22702 9.69494 8.58748L8.30112 9.49391C7.74448 9.84902 7.52787 10.5566 7.79153 11.163C8.38723 12.3659 9.19423 13.4525 10.1733 14.3705C11.0913 15.3497 12.178 16.1567 13.3808 16.7523C13.9872 17.016 14.6948 16.7993 15.0499 16.2427L15.9563 14.8489C16.3168 14.2949 16.8929 13.9176 17.5446 13.8084C18.1962 13.6992 18.8629 13.8679 19.3841 14.2745L21.529 15.9453C21.9791 16.296 22.2649 16.8171 22.3191 17.3853C22.3733 17.9535 22.1913 18.519 21.8148 18.9487L19.9407 21.0909C19.4826 21.6147 18.8114 21.9023 18.1163 21.8739C10.3927 21.7354 2.80489 14.1291 2.66989 6.42748ZM19.5397 10.8398C19.5379 9.29236 18.9227 7.80977 17.8289 6.71523C16.7343 5.62148 15.2516 5.00625 13.7044 5.00448C13.312 5.00448 12.9941 5.32229 12.9941 5.7147C12.9941 6.10711 13.312 6.42493 13.7044 6.42493C14.8745 6.42582 15.9966 6.89191 16.8248 7.71932C17.6522 8.54761 18.1183 9.66977 18.1192 10.8398C18.1254 11.2277 18.4415 11.5393 18.8294 11.5393C19.2174 11.5393 19.5343 11.2277 19.5397 10.8398ZM16.8258 10.8398C16.824 9.11659 15.4276 7.72 13.7044 7.71841C13.312 7.71841 12.9942 8.03623 12.9942 8.42863C12.9942 8.82104 13.312 9.13886 13.7044 9.13886C14.6437 9.13975 15.4045 9.90059 15.4054 10.8399C15.4108 11.2287 15.7277 11.5403 16.1157 11.5403C16.5045 11.5403 16.8205 11.2286 16.8258 10.8398Z" fill="#0044F1"/>
</svg>
